<svg xmlns="http://www.w3.org/2000/svg" width="16" height="16" viewBox="0 0 16 16">
  <path fill="currentColor" fill-rule="evenodd" d="
    M 3 4.5
    C 3 3.67 3.67 3 4.5 3
    L 11.5 3
    C 12.33 3 13 3.67 13 4.5
    L 13 9.5
    C 13 10.33 12.33 11 11.5 11
    L 9.5 11
    L 9.5 12
    L 10.5 12
    C 10.78 12 11 12.22 11 12.5
    C 11 12.78 10.78 13 10.5 13
    L 5.5 13
    C 5.22 13 5 12.78 5 12.5
    C 5 12.22 5.22 12 5.5 12
    L 6.5 12
    L 6.5 11
    L 4.5 11
    C 3.67 11 3 10.33 3 9.5
    Z
    M 4.5 4
    C 4.22 4 4 4.22 4 4.5
    L 4 9.5
    C 4 9.78 4.22 10 4.5 10
    L 11.5 10
    C 11.78 10 12 9.78 12 9.5
    L 12 4.5
    C 12 4.22 11.78 4 11.5 4
    Z"/>
  <path fill="currentColor" d="M 8 4.3 L 10.3 8.7 L 9.4 8.7 L 8 6 L 6.6 8.7 L 5.7 8.7 Z"/>
</svg>
